<svg width="32" height="32" viewBox="0 0 32 32" fill="none" xmlns="http://www.w3.org/2000/svg">
  <defs>
    <linearGradient id="shieldGradient" x1="0%" y1="0%" x2="100%" y2="100%">
      <stop offset="0%" style="stop-color:#696cff;stop-opacity:1" />
      <stop offset="100%" style="stop-color:#5e60ff;stop-opacity:1" />
    </linearGradient>
    <linearGradient id="accentGradient" x1="0%" y1="0%" x2="100%" y2="100%">
      <stop offset="0%" style="stop-color:#28c76f;stop-opacity:1" />
      <stop offset="100%" style="stop-color:#22b863;stop-opacity:1" />
    </linearGradient>
  </defs>
  
  <!-- Fondo del escudo -->
  <path d="M16 2L6 7V16C6 22.5 16 30 16 30S26 22.5 26 16V7L16 2Z" fill="url(#shieldGradient)" />
  
  <!-- Borde del escudo -->
  <path d="M16 2L6 7V16C6 22.5 16 30 16 30S26 22.5 26 16V7L16 2Z" stroke="rgba(255,255,255,0.2)" stroke-width="0.5" fill="none"/>
  
  <!-- Gráfico de gestión (líneas ascendentes) -->
  <g opacity="0.9">
    <line x1="11" y1="20" x2="11" y2="18" stroke="white" stroke-width="1.5" stroke-linecap="round"/>
    <line x1="13" y1="20" x2="13" y2="16" stroke="white" stroke-width="1.5" stroke-linecap="round"/>
    <line x1="15" y1="20" x2="15" y2="14" stroke="white" stroke-width="1.5" stroke-linecap="round"/>
    <line x1="17" y1="20" x2="17" y2="12" stroke="white" stroke-width="1.5" stroke-linecap="round"/>
    <line x1="19" y1="20" x2="19" y2="15" stroke="white" stroke-width="1.5" stroke-linecap="round"/>
    <line x1="21" y1="20" x2="21" y2="17" stroke="white" stroke-width="1.5" stroke-linecap="round"/>
    <line x1="10.5" y1="20" x2="21.5" y2="20" stroke="white" stroke-width="2" stroke-linecap="round"/>
  </g>
  
  <!-- Símbolo de equipo (personas) -->
  <g opacity="0.85">
    <circle cx="11" cy="11" r="2" fill="white"/>
    <path d="M11 13C11 13 9 14.5 9 16.5V20H13V16.5C13 14.5 11 13 11 13Z" fill="white"/>
    <circle cx="16" cy="10" r="2.2" fill="url(#accentGradient)"/>
    <path d="M16 12.2C16 12.2 13.5 14 13.5 16.2V20H18.5V16.2C18.5 14 16 12.2 16 12.2Z" fill="url(#accentGradient)"/>
    <circle cx="21" cy="11" r="2" fill="white"/>
    <path d="M21 13C21 13 23 14.5 23 16.5V20H19V16.5C19 14.5 21 13 21 13Z" fill="white"/>
  </g>
  
  <!-- Badge superior -->
  <circle cx="16" cy="5.5" r="1.5" fill="url(#accentGradient)"/>
</svg>
